<?xml version="1.0" standalone="no"?>
<!DOCTYPE svg PUBLIC "-//W3C//DTD SVG 20010904//EN"
 "http://www.w3.org/TR/2001/REC-SVG-20010904/DTD/svg10.dtd">
<svg version="1.0" xmlns="http://www.w3.org/2000/svg"
 width="263.000000pt" height="263.000000pt" viewBox="0 0 263.000000 263.000000"
 preserveAspectRatio="xMidYMid meet">
<metadata>
Created by potrace 1.14, written by Peter Selinger 2001-2017
</metadata>
<g transform="translate(0.000000,263.000000) scale(0.100000,-0.100000)"
fill="#000000" stroke="none">
<path d="M1179 2446 c-2 -2 -33 -6 -69 -9 -36 -3 -76 -8 -90 -11 -14 -3 -49
-10 -78 -16 -132 -24 -388 -129 -514 -210 l-48 -30 44 -67 c58 -91 163 -245
177 -261 9 -11 14 -11 27 0 62 49 287 148 367 161 17 3 51 10 76 16 95 22 289
30 394 16 172 -22 350 -85 508 -179 26 -16 49 -27 51 -25 1 2 47 69 101 149
53 80 104 153 112 162 14 16 9 21 -57 64 -39 25 -106 62 -148 81 -43 19 -91
41 -108 49 -47 21 -267 82 -321 90 -26 3 -57 8 -68 11 -26 6 -350 15 -356 9z"/>
<path d="M1257 1914 c-1 -1 -31 -5 -67 -8 -414 -42 -757 -407 -817 -871 -14
-108 -6 -298 17 -400 7 -27 13 -59 16 -70 10 -49 57 -181 70 -195 21 -21 18
-2 -12 87 -57 167 -73 272 -70 453 3 162 4 169 37 289 52 193 203 413 364 529
96 70 241 131 350 149 61 10 274 10 335 1 70 -11 170 -37 227 -58 29 -11 54
-16 57 -11 12 18 -122 64 -251 86 -73 13 -248 26 -256 19z"/>
<path d="M1882 1857 c-19 -23 -22 -70 -6 -95 9 -13 14 -25 12 -27 -2 -2 -25
-6 -52 -9 -58 -8 -66 -12 -66 -32 0 -20 34 -31 116 -39 85 -8 96 -11 160 -41
40 -20 56 -23 77 -15 19 7 24 15 20 30 -3 12 -8 21 -12 21 -3 0 -21 14 -38 30
-27 25 -33 38 -31 68 3 79 -29 104 -51 41 l-10 -30 -31 22 c-16 13 -30 26 -30
31 0 19 -2 24 -17 41 -19 20 -27 21 -41 4z m28 -36 c0 -19 54 -72 155 -151 68
-53 53 -67 -29 -26 -44 22 -120 36 -213 39 -20 1 -15 17 5 18 20 1 57 7 91 14
l24 6 -27 28 c-26 27 -37 91 -16 91 6 0 10 -8 10 -19z m130 -68 c0 -19 -3 -24
-10 -17 -6 6 -8 18 -4 27 9 24 14 21 14 -10z"/>
<path d="M1229 1705 c-2 -2 -17 -6 -34 -8 -106 -19 -198 -60 -300 -132 -137
-97 -247 -248 -301 -411 -27 -82 -29 -100 -28 -229 1 -133 3 -145 36 -241 21
-62 54 -129 84 -174 27 -40 72 -113 100 -163 83 -148 167 -218 327 -272 369
-123 776 -12 987 270 50 68 113 197 109 225 0 3 4 17 10 31 9 24 16 78 27 199
8 92 4 230 -7 277 -28 113 -96 203 -215 282 -41 28 -98 76 -126 106 -89 97
-199 166 -337 212 -60 20 -102 25 -202 28 -70 2 -128 2 -130 0z m235 -30 c14
-3 38 -7 53 -11 102 -21 240 -97 338 -187 l50 -46 -65 20 c-36 12 -79 25 -97
29 -18 4 -74 28 -125 53 -149 74 -290 86 -449 40 -94 -27 -229 -97 -229 -118
0 -15 38 -55 52 -55 15 0 8 -21 -9 -26 -58 -20 -144 -66 -170 -91 -57 -56
-126 -179 -149 -265 -33 -126 -19 -282 39 -456 14 -39 24 -72 22 -72 -12 0
-71 118 -96 192 -80 237 -51 465 83 664 118 174 332 311 518 331 30 3 56 7 58
8 5 4 147 -4 176 -10z m-144 -170 c0 -10 -151 -74 -178 -75 -2 0 5 13 14 30
21 34 34 41 89 47 22 2 41 6 43 8 4 4 32 -5 32 -10z"/>
<path d="M523 269 c-27 -10 -29 -27 -6 -44 24 -18 53 -2 46 25 -7 26 -13 29
-40 19z"/>
</g>
</svg>
